<svg width="1251" height="1009" viewBox="0 0 1251 1009" fill="none" xmlns="http://www.w3.org/2000/svg">
<path d="M9.47215 392.942C53.8926 186.142 245.361 -66.6134 453.679 17.6386C646.823 95.7533 531.798 232.098 686.505 353.114C841.212 474.13 1050.58 287.57 1190.45 441.961C1271.63 531.574 1272.78 684.376 1175.51 808.648C1078.25 932.919 882.568 1028.66 570.091 1004.15C274.92 980.998 128.315 858.23 58.726 726.234C-10.8626 594.238 -3.43093 453.011 9.47215 392.942Z" stroke="white" stroke-width="2" stroke-miterlimit="10"/>
<path d="M561.927 985.389C291.165 964.552 155.698 852.519 90.9499 731.342C26.825 610.865 32.7153 481.664 44.1661 425.335C83.7531 233.737 259.592 -0.750919 452.997 71.6512C631.576 138.502 532.414 261.577 675.621 371.925C679.708 375.053 683.833 377.964 687.994 380.671C800.662 454.047 939.704 376.394 1054.22 408.461C1085.31 417.166 1114.67 433.808 1141.04 463.631C1216.89 549.417 1216.83 690.981 1126.18 805.316C1034.95 920.115 851.867 1007.45 561.927 985.389Z" stroke="white" stroke-width="2" stroke-miterlimit="10"/>
<path d="M553.762 966.628C307.411 948.107 183.082 846.808 123.173 736.45C64.5117 627.493 68.6874 510.285 78.8612 457.73C113.028 281.217 273.78 65.1225 452.316 125.664C616.292 181.268 532.688 291.515 664.738 390.737C668.544 393.597 672.402 396.239 676.281 398.717C780.967 465.746 908.46 400.094 1012.55 432.727C1040.98 441.638 1067.79 457.584 1091.63 485.302C1162.14 567.287 1160.88 697.586 1076.84 801.987C991.649 907.311 821.167 986.235 553.762 966.628Z" stroke="white" stroke-width="2" stroke-miterlimit="10"/>
<path d="M545.596 947.867C323.655 931.66 210.187 841.25 155.396 741.558C101.926 644.27 104.757 538.927 113.555 490.123C142.643 328.775 287.913 131.015 451.633 179.676C600.957 224.058 533.164 321.196 653.855 409.547C657.385 412.131 660.971 414.514 664.567 416.762C761.272 477.444 877.225 423.823 970.88 456.993C996.641 466.116 1020.9 481.376 1042.22 506.972C1107.37 585.19 1104.93 704.189 1027.51 798.655C948.349 894.507 790.465 965.023 545.596 947.867Z" stroke="white" stroke-width="2" stroke-miterlimit="10"/>
<path d="M537.432 929.104C339.871 915.624 237.491 835.584 187.619 746.665C139.539 660.94 140.836 567.572 148.249 522.515C172.3 376.347 301.973 196.94 450.951 233.687C585.558 266.889 533.67 350.848 642.972 428.356C646.227 430.664 649.539 432.787 652.853 434.806C741.577 489.141 845.998 447.591 929.208 481.256C952.309 490.603 973.989 505.184 992.81 528.64C1052.58 603.133 1049.2 710.974 978.17 795.322C905.272 881.891 759.734 944.273 537.432 929.104Z" stroke="white" stroke-width="2" stroke-miterlimit="10"/>
<path d="M529.266 910.343C356.113 899.244 264.806 829.918 219.842 751.773C177.166 677.606 176.928 596.224 182.944 554.908C202.013 423.939 315.944 262.93 450.27 287.7C570.082 309.793 534.214 380.467 632.09 447.168C635.071 449.199 638.108 451.062 641.14 452.852C721.883 500.84 814.775 471.416 887.537 505.523C907.981 515.106 927.06 529.018 943.4 550.311C997.747 621.132 993.284 717.611 928.835 791.992C862.005 869.122 729.03 923.148 529.266 910.343Z" stroke="white" stroke-width="2" stroke-miterlimit="10"/>
<path d="M521.102 891.582C372.359 882.837 292.14 824.244 252.066 756.88C214.815 694.264 213.04 624.882 217.639 587.302C231.801 471.551 329.803 329.036 449.589 341.713C554.509 352.818 534.806 410.035 621.207 465.98C623.914 467.733 626.676 469.338 629.426 470.899C702.187 512.539 783.545 495.315 845.865 529.789C863.651 539.628 880.104 552.877 893.99 571.982C942.85 639.199 937.35 724.236 879.499 788.661C818.725 856.343 698.328 902.001 521.102 891.582Z" stroke="white" stroke-width="2" stroke-miterlimit="10"/>
<path d="M512.937 872.82C388.607 866.392 319.502 818.56 284.289 761.988C252.493 710.909 249.182 653.547 252.333 619.695C261.69 519.184 343.72 389.666 448.908 395.725C538.686 400.896 535.462 439.524 610.324 484.79C612.761 486.263 615.245 487.612 617.714 488.945C682.494 524.238 752.288 519.311 804.194 554.056C819.316 564.177 833.114 576.768 844.582 593.653C887.853 657.358 881.396 730.846 830.164 785.331C775.422 843.548 667.63 880.818 512.937 872.82Z" stroke="white" stroke-width="2" stroke-miterlimit="10"/>
<path d="M504.772 854.059C404.858 849.891 346.913 812.851 316.512 767.096C290.221 727.527 285.368 682.219 287.027 652.089C291.721 566.836 357.223 462.045 448.226 449.738C523.105 439.611 536.2 468.896 599.441 503.601C601.609 504.791 603.814 505.886 606 506.99C662.799 535.936 720.959 543.429 762.522 578.321C774.958 588.761 786.073 600.691 795.172 615.323C832.679 675.639 825.41 737.429 780.828 782C732.089 830.727 636.938 859.573 504.772 854.059Z" stroke="white" stroke-width="2" stroke-miterlimit="10"/>
<path d="M496.607 835.297C421.115 833.296 374.418 807.083 348.735 772.204C328.034 744.091 321.632 710.89 321.722 684.482C321.96 614.49 371.068 529.36 447.545 503.75C507.51 483.671 537.04 498.069 588.559 522.412C590.461 523.311 592.382 524.161 594.287 525.036C643.104 547.635 689.48 567.677 720.85 602.587C730.554 613.386 738.967 624.648 745.763 636.993C777.195 694.089 769.382 743.967 731.493 778.669C688.707 817.854 606.249 838.204 496.607 835.297Z" stroke="white" stroke-width="2" stroke-miterlimit="10"/>
<path d="M446.863 557.763C494.381 526.986 541.736 526.83 582.573 543.082C623.409 559.334 657.729 591.994 679.178 626.853C723.188 698.377 719.063 745.799 682.157 775.338C645.25 804.878 575.561 816.537 488.442 816.537C401.324 816.537 360.331 771.661 356.417 716.876C352.501 662.092 385.666 597.398 446.863 557.763Z" stroke="white" stroke-width="2" stroke-miterlimit="10"/>
</svg>
