<svg width="219" height="32" viewBox="0 0 219 32" fill="none" xmlns="http://www.w3.org/2000/svg">
<path d="M7.13673 31.2267V27.8736L39.0984 28.1315V31.2267H7.13673Z" fill="#B18C55"/>
<path d="M20.1771 24.5205H7.13673L0.488708 13.1716H13.6816L20.1771 24.5205Z" fill="#B18C55"/>
<path d="M39.0984 24.5205H26.5694L33.2175 13.1716H45.5939L39.0984 24.5205Z" fill="#B18C55"/>
<path d="M29.8934 11.6154L23.2454 23.2308L16.5974 11.6154L23.2454 0L29.8934 11.6154Z" fill="#B18C55"/>
<path d="M56.0027 24.8478V1.34313H61.1737V13.9014L66.9156 7.05142H72.7582L66.5127 14.5393L73.4633 24.8478H67.4864L63.0205 18.1322L61.1737 20.2812V24.8478H56.0027Z" fill="#B18C55"/>
<path d="M75.8164 24.8478V7.05142H80.9875V24.8478H75.8164ZM78.402 5.37251C77.4394 5.37251 76.6895 5.12627 76.1522 4.63379C75.6373 4.11892 75.3799 3.46974 75.3799 2.68625C75.3799 1.90276 75.6373 1.26478 76.1522 0.772298C76.6895 0.257433 77.4394 0 78.402 0C79.3645 0 80.1032 0.257433 80.6181 0.772298C81.1554 1.26478 81.424 1.90276 81.424 2.68625C81.424 3.46974 81.1554 4.11892 80.6181 4.63379C80.1032 5.12627 79.3645 5.37251 78.402 5.37251Z" fill="#B18C55"/>
<path d="M84.695 24.8478V7.05142H89.4631V9.46904C89.9108 8.66317 90.6047 7.99161 91.5449 7.45435C92.5075 6.89472 93.7835 6.6149 95.3728 6.6149C97.4994 6.6149 99.1 7.18573 100.175 8.32739C101.271 9.46904 101.82 11.1144 101.82 13.2634V24.8478H96.6488V14.4386C96.6488 13.2746 96.3914 12.4015 95.8765 11.8195C95.384 11.2151 94.567 10.9129 93.4253 10.9129C92.597 10.9129 91.9143 11.0808 91.377 11.4166C90.8622 11.73 90.4816 12.1553 90.2354 12.6925C89.9891 13.2074 89.866 13.7894 89.866 14.4386V24.8478H84.695Z" fill="#B18C55"/>
<path d="M113.084 32C111.159 32 109.615 31.765 108.45 31.2949C107.309 30.8472 106.469 30.198 105.932 29.3473C105.417 28.4967 105.115 27.5005 105.026 26.3589H110.297C110.409 26.7618 110.655 27.1424 111.036 27.5005C111.439 27.8587 112.122 28.0378 113.084 28.0378C114.427 28.0378 115.435 27.7244 116.106 27.0976C116.8 26.4932 117.147 25.5194 117.147 24.1763V22.2623C116.543 23.1354 115.782 23.8069 114.864 24.277C113.968 24.7247 113.017 24.9486 112.01 24.9486C110.465 24.9486 109.111 24.6128 107.947 23.9412C106.805 23.2697 105.921 22.2735 105.294 20.9528C104.667 19.632 104.354 17.9643 104.354 15.9496V15.2781C104.354 13.3977 104.656 11.8195 105.261 10.5435C105.887 9.24519 106.772 8.27142 107.913 7.62225C109.077 6.95068 110.443 6.6149 112.01 6.6149C113.398 6.6149 114.551 6.9171 115.468 7.52151C116.409 8.10353 117.102 8.75271 117.55 9.46904V7.05142H122.318V23.6726C122.318 26.4484 121.568 28.5303 120.069 29.9182C118.591 31.3061 116.263 32 113.084 32ZM113.252 20.6842C113.991 20.6842 114.651 20.5163 115.233 20.1805C115.815 19.8447 116.274 19.3634 116.61 18.7366C116.968 18.0874 117.147 17.3263 117.147 16.4533V14.7744C117.147 13.9237 116.968 13.2186 116.61 12.659C116.274 12.0769 115.815 11.6404 115.233 11.3494C114.651 11.036 113.991 10.8793 113.252 10.8793C112.2 10.8793 111.338 11.2487 110.667 11.9874C109.995 12.7037 109.659 13.8006 109.659 15.2781V15.9496C109.659 17.4942 109.995 18.6695 110.667 19.4753C111.361 20.2812 112.222 20.6842 113.252 20.6842Z" fill="#B18C55"/>
<path d="M134.078 25.2844C132.332 25.2844 130.777 24.9486 129.411 24.277C128.046 23.6055 126.971 22.5869 126.188 21.2214C125.404 19.8559 125.012 18.1546 125.012 16.1175V15.446C125.012 13.5656 125.415 11.965 126.221 10.6443C127.049 9.32354 128.146 8.32739 129.512 7.65582C130.9 6.96187 132.422 6.6149 134.078 6.6149C135.869 6.6149 137.369 6.9283 138.578 7.55509C139.787 8.1595 140.716 8.97656 141.365 10.0063C142.014 11.036 142.383 12.1777 142.473 13.4313H137.134C136.977 12.6254 136.653 12.0098 136.16 11.5845C135.69 11.1368 134.996 10.9129 134.078 10.9129C133.362 10.9129 132.713 11.0808 132.131 11.4166C131.571 11.7524 131.124 12.256 130.788 12.9276C130.474 13.5768 130.318 14.4162 130.318 15.446V16.1175C130.318 17.2144 130.474 18.121 130.788 18.8374C131.101 19.5537 131.538 20.0909 132.097 20.4491C132.657 20.7849 133.317 20.9528 134.078 20.9528C134.862 20.9528 135.522 20.7513 136.06 20.3484C136.619 19.923 136.977 19.2963 137.134 18.468H142.473C142.383 19.8559 141.981 21.0647 141.264 22.0944C140.548 23.1242 139.574 23.9189 138.343 24.4785C137.134 25.0157 135.713 25.2844 134.078 25.2844Z" fill="#181F53"/>
<path d="M144.998 24.8478V7.05142H149.766V9.46904C149.945 9.06611 150.247 8.64078 150.673 8.19307C151.098 7.74537 151.613 7.376 152.217 7.08499C152.822 6.7716 153.493 6.6149 154.232 6.6149C154.613 6.6149 154.915 6.63729 155.139 6.68206C155.362 6.72683 155.564 6.7716 155.743 6.81637V11.2823C155.631 11.2151 155.374 11.1368 154.971 11.0472C154.568 10.9577 154.109 10.9129 153.594 10.9129C152.788 10.9129 152.128 11.0696 151.613 11.383C151.12 11.6964 150.751 12.1217 150.505 12.659C150.281 13.1962 150.169 13.8006 150.169 14.4722V24.8478H144.998Z" fill="#181F53"/>
<path d="M166.152 25.2844C164.406 25.2844 162.839 24.9598 161.451 24.3106C160.063 23.639 158.955 22.6205 158.127 21.255C157.321 19.8895 156.918 18.177 156.918 16.1175V15.446C156.918 13.476 157.31 11.8419 158.093 10.5435C158.877 9.24519 159.94 8.27142 161.283 7.62225C162.649 6.95068 164.16 6.6149 165.816 6.6149C168.749 6.6149 170.965 7.376 172.465 8.89822C173.965 10.398 174.715 12.5806 174.715 15.446V17.3263H162.224C162.268 18.1994 162.47 18.9269 162.828 19.5089C163.209 20.0909 163.69 20.5163 164.272 20.7849C164.854 21.0311 165.481 21.1542 166.152 21.1542C167.137 21.1542 167.909 21.0087 168.469 20.7177C169.051 20.4043 169.432 19.9902 169.611 19.4753H174.379C174.021 21.4229 173.136 22.8779 171.726 23.8405C170.316 24.8031 168.458 25.2844 166.152 25.2844ZM165.984 10.745C165.358 10.745 164.764 10.8457 164.205 11.0472C163.645 11.2487 163.186 11.5845 162.828 12.0546C162.492 12.5023 162.302 13.1179 162.257 13.9014H169.644C169.644 13.0731 169.476 12.4351 169.141 11.9874C168.805 11.5173 168.357 11.1927 167.798 11.0136C167.26 10.8346 166.656 10.745 165.984 10.745Z" fill="#181F53"/>
<path d="M184.38 25.2844C182.835 25.2844 181.481 24.9374 180.317 24.2434C179.175 23.5495 178.291 22.531 177.664 21.1878C177.037 19.8223 176.724 18.1322 176.724 16.1175V15.446C176.724 13.5208 177.026 11.9091 177.631 10.6107C178.235 9.28996 179.108 8.29381 180.25 7.62225C181.391 6.95068 182.768 6.6149 184.38 6.6149C185.387 6.6149 186.339 6.84995 187.234 7.32004C188.152 7.76775 188.913 8.42812 189.517 9.30115V1.34313H194.688V24.8478H189.92V22.4302C189.473 23.1466 188.767 23.8069 187.805 24.4113C186.865 24.9934 185.723 25.2844 184.38 25.2844ZM185.622 21.0199C186.361 21.0199 187.021 20.852 187.603 20.5163C188.185 20.1581 188.644 19.6544 188.98 19.0052C189.338 18.3337 189.517 17.539 189.517 16.6212V14.9423C189.517 14.0469 189.338 13.297 188.98 12.6925C188.644 12.0881 188.185 11.6404 187.603 11.3494C187.021 11.036 186.361 10.8793 185.622 10.8793C184.57 10.8793 183.708 11.2599 183.037 12.021C182.365 12.7597 182.029 13.9014 182.029 15.446V16.1175C182.029 17.7293 182.365 18.9493 183.037 19.7775C183.731 20.6058 184.593 21.0199 185.622 21.0199Z" fill="#181F53"/>
<path d="M198.39 24.8478V7.05142H203.561V24.8478H198.39ZM200.975 5.37251C200.013 5.37251 199.263 5.12627 198.726 4.63379C198.211 4.11892 197.953 3.46974 197.953 2.68625C197.953 1.90276 198.211 1.26478 198.726 0.772298C199.263 0.257433 200.013 0 200.975 0C201.938 0 202.677 0.257433 203.192 0.772298C203.729 1.26478 203.997 1.90276 203.997 2.68625C203.997 3.46974 203.729 4.11892 203.192 4.63379C202.677 5.12627 201.938 5.37251 200.975 5.37251Z" fill="#181F53"/>
<path d="M214.824 25.0493C213.346 25.0493 212.137 24.859 211.197 24.4785C210.257 24.0756 209.563 23.4264 209.115 22.531C208.668 21.6132 208.444 20.3708 208.444 18.8038V11.2823H206.261V7.05142H208.444V3.02203H213.615V7.05142H217.678V11.2823H213.615V17.9643C213.615 18.9717 213.771 19.688 214.085 20.1133C214.421 20.5387 215.059 20.7513 215.999 20.7513C216.67 20.7513 217.342 20.7177 218.013 20.6506V24.8478C217.588 24.915 217.14 24.9598 216.67 24.9822C216.2 25.0269 215.585 25.0493 214.824 25.0493Z" fill="#181F53"/>
</svg>
